<mxfile host="app.diagrams.net" modified="2022-04-15T16:56:44.867Z" agent="5.0 (Windows NT 10.0; Win64; x64) AppleWebKit/537.36 (KHTML, like Gecko) Chrome/100.0.4896.75 Safari/537.36" etag="4ojjnNvKWhVSXZVYnTXW" version="17.4.4" type="github">
  <diagram id="H2NDY_aSfh1fat4qzvmX" name="Page-1">
    <mxGraphModel dx="1108" dy="450" grid="1" gridSize="10" guides="1" tooltips="1" connect="1" arrows="1" fold="1" page="1" pageScale="1" pageWidth="850" pageHeight="1100" math="0" shadow="0">
      <root>
        <mxCell id="0" />
        <mxCell id="1" parent="0" />
        <mxCell id="iuM6MjqZFyRonkOEujaM-1" value="The resident" style="shape=umlActor;verticalLabelPosition=bottom;labelBackgroundColor=#ffffff;verticalAlign=top;html=1;outlineConnect=0;fillColor=#FFE599;" vertex="1" parent="1">
          <mxGeometry x="280" y="180" width="30" height="60" as="geometry" />
        </mxCell>
        <mxCell id="iuM6MjqZFyRonkOEujaM-2" value="" style="edgeStyle=orthogonalEdgeStyle;rounded=0;orthogonalLoop=1;jettySize=auto;html=1;" edge="1" parent="1" target="iuM6MjqZFyRonkOEujaM-4">
          <mxGeometry relative="1" as="geometry">
            <mxPoint x="340" y="210" as="sourcePoint" />
          </mxGeometry>
        </mxCell>
        <mxCell id="iuM6MjqZFyRonkOEujaM-3" value="" style="edgeStyle=orthogonalEdgeStyle;rounded=0;orthogonalLoop=1;jettySize=auto;html=1;" edge="1" parent="1" source="iuM6MjqZFyRonkOEujaM-4" target="iuM6MjqZFyRonkOEujaM-6">
          <mxGeometry relative="1" as="geometry" />
        </mxCell>
        <mxCell id="iuM6MjqZFyRonkOEujaM-4" value="&lt;div style=&quot;font-size: 14px&quot;&gt;Navigates to &quot;&lt;b&gt;Get UIN&lt;/b&gt;&quot;&lt;br&gt;&lt;/div&gt;" style="rounded=1;whiteSpace=wrap;html=1;fillColor=#C3ABD0;arcSize=10;" vertex="1" parent="1">
          <mxGeometry x="410" y="180" width="120" height="60" as="geometry" />
        </mxCell>
        <mxCell id="iuM6MjqZFyRonkOEujaM-5" value="" style="edgeStyle=orthogonalEdgeStyle;rounded=0;orthogonalLoop=1;jettySize=auto;html=1;" edge="1" parent="1" source="iuM6MjqZFyRonkOEujaM-6" target="iuM6MjqZFyRonkOEujaM-8">
          <mxGeometry relative="1" as="geometry" />
        </mxCell>
        <mxCell id="iuM6MjqZFyRonkOEujaM-6" value="&lt;font style=&quot;font-size: 14px&quot;&gt;1. Enters AID/UIN/VID&lt;br&gt;2.&amp;nbsp;Enters fullname&lt;br&gt;3. Enters YYYY&lt;br&gt;4. Enters captcha&lt;br&gt;5. Enters OTP&lt;/font&gt;" style="rounded=1;whiteSpace=wrap;html=1;fillColor=#C3ABD0;" vertex="1" parent="1">
          <mxGeometry x="600" y="150" width="150" height="120" as="geometry" />
        </mxCell>
        <mxCell id="iuM6MjqZFyRonkOEujaM-7" value="" style="edgeStyle=orthogonalEdgeStyle;rounded=0;orthogonalLoop=1;jettySize=auto;html=1;entryX=0;entryY=0.5;entryDx=0;entryDy=0;" edge="1" parent="1" source="iuM6MjqZFyRonkOEujaM-8">
          <mxGeometry relative="1" as="geometry">
            <mxPoint x="1030" y="210.005" as="targetPoint" />
          </mxGeometry>
        </mxCell>
        <mxCell id="iuM6MjqZFyRonkOEujaM-8" value="&lt;font style=&quot;font-size: 14px&quot;&gt;Gets a UIN card&amp;nbsp; with name, DOB and UIN (configurable attributes)&lt;/font&gt;" style="rounded=1;whiteSpace=wrap;html=1;fillColor=#C3ABD0;" vertex="1" parent="1">
          <mxGeometry x="840" y="165" width="150" height="90" as="geometry" />
        </mxCell>
        <mxCell id="iuM6MjqZFyRonkOEujaM-9" value="&lt;font style=&quot;font-size: 14px&quot;&gt;Gets a notification of the transaction over registered email Id &amp;amp; phone number&lt;/font&gt;" style="rounded=1;whiteSpace=wrap;html=1;fillColor=#C3ABD0;" vertex="1" parent="1">
          <mxGeometry x="1030" y="160" width="160" height="97.81" as="geometry" />
        </mxCell>
        <mxCell id="iuM6MjqZFyRonkOEujaM-10" value="After successful validation, a session is created" style="text;html=1;strokeColor=none;fillColor=none;align=center;verticalAlign=middle;whiteSpace=wrap;rounded=0;" vertex="1" parent="1">
          <mxGeometry x="760" y="160" width="70" height="20" as="geometry" />
        </mxCell>
        <mxCell id="iuM6MjqZFyRonkOEujaM-11" value="We would want this to be synchronous" style="text;html=1;strokeColor=none;fillColor=none;align=center;verticalAlign=middle;whiteSpace=wrap;rounded=0;shadow=0;" vertex="1" parent="1">
          <mxGeometry x="800" y="270" width="230" height="20" as="geometry" />
        </mxCell>
      </root>
    </mxGraphModel>
  </diagram>
</mxfile>
